<?xml version="1.0" standalone="no"?><!DOCTYPE svg PUBLIC "-//W3C//DTD SVG 1.1//EN" "http://www.w3.org/Graphics/SVG/1.1/DTD/svg11.dtd"><svg t="1733040780207" class="icon" viewBox="0 0 1024 1024" version="1.1" xmlns="http://www.w3.org/2000/svg" p-id="1533" xmlns:xlink="http://www.w3.org/1999/xlink" width="128" height="128"><path d="M140.8 883.2c-6.4 0-19.2 0-25.6-6.4-12.8-12.8-12.8-32 0-44.8L838.4 108.8c12.8-12.8 32-12.8 44.8 0s12.8 32 0 44.8L166.4 876.8C160 883.2 153.6 883.2 140.8 883.2z" p-id="1534"></path><path d="M864 883.2c-6.4 0-19.2 0-25.6-6.4L121.6 153.6c-12.8-12.8-12.8-32 0-44.8s32-12.8 44.8 0L883.2 832c12.8 12.8 12.8 32 0 44.8C876.8 883.2 870.4 883.2 864 883.2z" p-id="1535"></path></svg>